<svg width="96" height="96" viewBox="0 0 96 96" fill="none" xmlns="http://www.w3.org/2000/svg">
  <rect width="96" height="96" rx="26" fill="url(#bg)"/>
  <rect x="24" y="24" width="48" height="48" rx="18" fill="white" fill-opacity="0.14"/>
  <path d="M48 32C56.8366 32 64 39.1634 64 48C64 56.8366 56.8366 64 48 64C39.1634 64 32 56.8366 32 48C32 39.1634 39.1634 32 48 32Z" fill="white" fill-opacity="0.94"/>
  <path d="M48 39L50.919 44.9134L57 45.7984L52.5 50.185L53.562 56.1732L48 53.25L42.438 56.1732L43.5 50.185L39 45.7984L45.081 44.9134L48 39Z" fill="#0F766E"/>
  <defs>
    <linearGradient id="bg" x1="10" y1="10" x2="86" y2="88" gradientUnits="userSpaceOnUse">
      <stop stop-color="#14B8A6"/>
      <stop offset="1" stop-color="#0F766E"/>
    </linearGradient>
  </defs>
</svg>
